<?xml version="1.0" encoding="UTF-8" ?>
<!DOCTYPE svg PUBLIC "-//W3C//DTD SVG 1.1//EN" "http://www.w3.org/Graphics/SVG/1.1/DTD/svg11.dtd">
<svg width="512pt" height="512pt" viewBox="0 0 512 512" version="1.1" xmlns="http://www.w3.org/2000/svg">
<g id="#1e9bd8ff">
<path fill="#1e9bd8" opacity="1.00" d=" M 311.18 31.20 C 315.85 26.49 322.98 25.23 329.26 26.82 C 338.55 29.10 346.84 34.14 355.03 38.92 C 360.39 41.72 361.76 48.15 363.28 53.47 C 364.97 58.21 361.69 62.53 360.94 67.07 C 358.97 77.73 356.47 88.35 355.85 99.20 C 355.39 106.56 357.44 114.13 362.17 119.87 C 369.43 128.65 378.67 135.45 387.36 142.71 C 394.10 148.58 404.08 148.69 412.26 146.19 C 422.72 142.72 433.29 139.50 444.02 136.93 C 450.57 135.54 458.48 134.07 464.01 138.91 C 469.57 144.12 471.81 151.71 474.50 158.61 C 476.16 163.79 478.54 168.79 479.46 174.17 C 479.24 179.08 476.73 183.45 474.82 187.85 C 473.86 189.76 473.26 192.19 471.07 193.06 C 465.42 195.92 460.34 199.72 455.00 203.09 C 447.21 208.41 439.01 213.60 433.19 221.17 C 428.45 227.38 427.48 235.45 427.52 243.02 C 427.79 251.98 428.78 260.90 429.70 269.80 C 430.33 278.35 437.23 284.79 444.17 288.94 C 455.51 295.30 467.60 300.88 477.09 309.97 C 481.89 314.58 485.15 321.13 484.43 327.91 C 483.35 338.14 477.79 347.11 472.71 355.80 C 469.54 361.84 462.21 363.64 456.05 364.78 C 448.38 362.82 440.77 360.40 432.95 358.92 C 420.94 356.47 407.56 353.96 396.22 360.12 C 384.62 366.51 376.83 377.63 368.67 387.70 C 364.42 392.30 363.88 399.09 365.10 404.98 C 369.18 425.15 376.75 444.52 379.34 465.01 C 364.32 470.63 349.82 478.09 333.92 480.94 C 329.42 480.70 326.51 476.47 323.58 473.51 C 320.72 470.05 317.52 466.90 314.64 463.47 C 306.79 450.19 297.34 436.48 282.82 429.92 C 269.63 423.95 254.64 425.89 241.01 429.10 C 235.92 430.14 231.65 433.65 228.86 437.93 C 220.72 449.99 215.82 463.85 208.19 476.20 C 205.44 480.59 201.64 485.31 196.06 485.71 C 187.67 486.24 179.86 482.54 172.03 480.13 C 164.43 477.42 155.70 475.17 150.79 468.23 C 146.55 462.21 148.09 454.45 150.01 447.89 C 152.40 435.60 155.79 423.43 156.39 410.88 C 156.75 403.80 154.40 396.66 149.65 391.37 C 142.14 382.74 132.57 376.30 123.66 369.23 C 119.13 365.50 112.85 364.59 107.20 365.59 C 99.90 366.87 93.07 369.92 85.84 371.53 C 77.81 373.36 70.13 376.54 62.00 377.96 C 58.88 378.36 55.00 378.95 52.71 376.24 C 43.07 366.01 38.80 352.29 33.53 339.58 C 32.85 337.50 31.39 335.41 31.94 333.15 C 33.41 326.29 38.52 320.45 45.16 318.14 C 58.58 313.03 71.46 304.62 78.62 291.83 C 85.92 278.85 86.00 263.12 82.72 248.93 C 80.62 238.39 73.97 228.93 65.00 223.07 C 57.01 217.52 48.00 213.71 39.07 209.96 C 34.72 208.11 30.31 205.28 28.47 200.72 C 26.47 195.46 27.95 189.78 29.43 184.59 C 31.99 176.27 34.06 167.75 37.62 159.77 C 39.40 155.77 41.93 151.68 46.13 149.91 C 50.81 147.94 56.01 148.50 60.90 149.14 C 72.78 150.88 84.39 153.97 96.16 156.28 C 101.88 157.26 108.49 158.20 113.45 154.43 C 126.63 145.09 136.40 132.02 146.95 119.99 C 148.23 118.69 148.63 116.78 148.40 115.01 C 147.32 105.73 143.82 97.00 141.62 87.97 C 139.67 79.92 137.19 72.02 134.95 64.06 C 134.14 60.73 133.29 57.05 134.63 53.75 C 136.32 50.68 139.52 48.88 142.50 47.25 C 150.66 43.08 159.11 39.50 167.38 35.53 C 172.65 33.12 178.95 31.12 184.55 33.66 C 189.41 36.01 191.92 41.02 194.46 45.50 C 198.37 50.74 199.46 57.41 203.09 62.83 C 208.54 72.35 217.62 79.71 228.19 82.75 C 240.16 86.26 252.86 85.52 265.11 84.09 C 269.13 83.56 273.45 83.40 276.96 81.11 C 283.35 77.36 287.00 70.63 290.53 64.39 C 296.78 53.00 301.63 40.36 311.18 31.20 M 247.59 188.86 C 232.97 191.10 219.04 198.08 208.80 208.78 C 187.70 230.02 182.78 266.22 199.56 291.46 C 216.76 317.90 253.42 330.25 282.77 317.95 C 301.48 310.51 315.84 293.84 321.39 274.60 C 329.26 248.38 319.23 218.05 297.52 201.46 C 283.55 190.62 265.00 186.20 247.59 188.86 Z" />
</g>
</svg>
