<?xml version="1.0" encoding="UTF-8" ?>
<!DOCTYPE svg PUBLIC "-//W3C//DTD SVG 1.1//EN" "http://www.w3.org/Graphics/SVG/1.1/DTD/svg11.dtd">
<svg width="400pt" height="400pt" viewBox="0 0 400 400" version="1.1" xmlns="http://www.w3.org/2000/svg">
<g id="#feffffff">
</g>
<g id="#209bd8ff">
<path fill="#209bd8" opacity="1.00" d=" M 109.59 79.60 C 120.34 69.46 134.30 62.68 149.04 61.13 C 174.84 57.81 201.80 70.98 215.02 93.37 C 224.93 93.77 234.72 96.17 243.70 100.37 C 245.33 101.38 247.21 100.70 248.64 99.67 C 262.95 90.32 280.59 86.12 297.57 88.25 C 317.65 90.41 336.52 101.42 348.53 117.62 C 358.31 130.22 363.42 146.10 364.00 161.96 C 364.31 177.99 359.70 194.18 350.57 207.41 C 339.75 223.22 322.74 234.75 303.92 238.54 C 297.38 239.78 290.69 240.25 284.04 240.13 C 225.04 240.10 166.04 240.13 107.04 240.11 C 98.09 240.42 89.09 239.51 80.40 237.37 C 69.75 233.51 59.65 227.49 52.21 218.84 C 43.05 208.78 37.32 195.61 36.32 182.04 C 34.77 165.53 40.01 148.48 50.73 135.81 C 60.55 123.72 75.14 115.91 90.45 113.52 C 93.32 100.64 100.25 88.85 109.59 79.60 M 115.90 79.95 C 104.56 89.40 96.65 102.86 94.04 117.40 C 87.14 118.25 80.30 119.98 74.04 123.05 C 57.83 130.76 45.41 146.18 41.74 163.79 C 38.49 177.94 40.85 193.28 48.10 205.84 C 55.46 218.99 68.17 228.76 82.39 233.45 C 87.55 234.50 92.77 235.38 98.02 235.72 C 162.37 235.72 226.71 235.71 291.06 235.72 C 316.18 235.27 340.02 219.81 351.43 197.55 C 361.00 179.46 362.38 157.21 354.95 138.13 C 348.82 121.53 336.22 107.44 320.39 99.53 C 307.42 92.80 292.30 90.71 277.91 92.88 C 266.35 94.64 255.51 99.72 246.10 106.55 C 235.92 100.59 224.15 97.88 212.43 97.50 C 201.62 77.81 179.58 64.60 157.03 65.12 C 142.12 64.77 127.19 70.24 115.90 79.95 Z" />
<path fill="#209bd8" opacity="1.00" d=" M 303.75 114.74 C 305.69 111.68 306.60 107.43 310.19 105.84 C 313.52 105.00 316.32 107.58 319.15 108.86 C 319.51 109.93 319.88 111.00 320.24 112.07 C 319.55 116.46 317.22 121.30 319.54 125.55 C 321.25 128.18 324.05 129.82 326.33 131.91 C 331.43 132.54 335.99 129.40 341.04 129.64 C 344.02 131.21 344.45 135.16 345.56 138.05 C 345.26 142.87 339.73 143.91 336.90 146.91 C 332.89 150.02 334.24 155.71 334.93 160.00 C 337.34 164.42 343.65 164.78 346.14 169.24 C 347.37 171.79 345.84 174.48 344.71 176.75 C 343.81 178.75 341.54 180.13 339.36 179.46 C 335.17 178.63 330.32 176.57 326.39 179.30 C 323.96 181.40 321.36 183.82 320.43 186.98 C 320.89 192.05 323.24 196.78 323.62 201.90 C 320.10 202.68 316.76 205.17 313.14 204.87 C 308.76 202.17 307.47 196.16 302.61 193.98 C 299.32 192.87 295.52 192.85 292.31 194.21 C 288.40 197.28 288.25 203.31 284.14 206.20 C 281.04 206.18 278.07 205.02 275.31 203.73 C 274.10 203.23 273.23 202.09 273.19 200.77 C 273.14 196.27 275.63 191.89 274.45 187.39 C 273.10 184.06 269.58 182.44 267.03 180.16 C 261.94 179.35 257.42 183.03 252.43 182.40 C 249.77 179.90 248.95 176.09 247.48 172.85 C 248.83 168.96 253.60 168.88 256.08 166.07 C 259.54 162.87 259.25 157.61 258.46 153.38 C 256.82 148.63 251.67 147.32 247.81 145.00 C 246.03 144.17 246.74 142.05 247.03 140.58 C 247.77 137.88 248.53 135.09 250.16 132.77 C 255.15 131.36 260.00 134.92 264.95 134.04 C 268.01 131.94 270.70 129.08 272.72 125.96 C 272.99 121.40 270.70 117.16 269.82 112.76 C 270.05 112.29 270.49 111.35 270.71 110.88 C 274.31 109.26 277.84 106.51 282.02 107.45 C 284.23 111.76 286.10 117.56 291.68 118.31 C 295.78 118.80 301.75 119.31 303.75 114.74 M 291.26 142.37 C 285.07 144.69 281.44 151.63 282.30 158.06 C 283.43 166.47 292.84 172.44 300.93 169.86 C 309.24 167.82 314.09 157.42 310.13 149.77 C 307.28 142.58 298.23 139.21 291.26 142.37 Z" />
</g>
<g id="#78aec8ff">
<path fill="#78aec8" opacity="1.00" d=" M 159.19 85.22 C 162.69 81.83 163.17 75.66 167.79 73.51 C 171.63 74.10 177.04 75.49 177.50 80.16 C 177.31 84.62 174.44 89.58 177.27 93.74 C 179.47 96.19 182.02 98.61 185.04 99.99 C 189.88 100.24 194.68 96.44 199.48 98.59 C 202.45 101.06 203.67 105.67 202.35 109.31 C 198.86 111.40 195.04 113.32 192.53 116.61 C 190.91 120.28 191.30 124.71 192.47 128.45 C 195.66 131.49 200.02 132.92 203.57 135.48 C 204.70 136.05 205.71 137.47 204.85 138.71 C 203.63 141.42 202.69 144.41 200.69 146.66 C 196.77 147.53 192.91 145.95 189.01 145.78 C 184.09 145.84 179.77 149.69 178.17 154.16 C 177.76 158.89 181.27 163.06 181.01 167.78 C 179.91 169.45 177.95 170.26 176.29 171.26 C 174.14 172.41 171.32 173.71 169.06 172.09 C 166.13 168.69 164.50 164.05 160.61 161.57 C 156.69 160.57 152.59 161.42 148.83 162.66 C 146.67 166.33 144.63 170.08 142.51 173.77 C 138.50 173.97 134.93 172.04 131.33 170.61 C 129.83 166.62 133.04 163.04 132.66 159.05 C 132.26 153.77 127.82 149.29 122.73 148.20 C 118.65 147.58 115.12 150.36 111.18 150.73 C 109.56 150.62 108.90 148.98 108.09 147.84 C 106.88 145.67 105.34 143.50 105.09 140.98 C 104.97 139.11 106.73 138.08 107.99 137.06 C 110.82 135.11 113.77 133.34 116.37 131.08 C 116.63 127.09 116.83 123.03 116.08 119.08 C 112.38 116.13 107.71 114.69 104.07 111.68 C 104.30 107.88 105.69 103.94 107.95 100.89 C 112.24 99.18 116.48 103.69 120.91 102.21 C 125.08 100.54 128.70 97.18 130.38 92.98 C 130.30 88.06 126.82 83.39 128.36 78.34 C 131.27 76.03 135.73 73.85 139.34 75.80 C 142.55 79.24 143.86 85.03 148.96 86.29 C 152.37 86.52 155.94 86.38 159.19 85.22 M 150.27 109.39 C 144.48 110.80 140.38 116.29 139.66 122.04 C 138.70 129.49 144.43 137.33 152.02 138.11 C 160.64 139.48 169.48 131.85 168.86 123.02 C 168.69 113.97 158.88 106.92 150.27 109.39 Z" />
</g>
<g id="#16578dff">
<path fill="#16578d" opacity="1.00" d=" M 90.35 138.56 C 92.77 137.56 95.46 138.43 97.79 139.30 C 100.92 141.46 99.12 145.80 99.96 148.94 C 100.40 153.49 105.47 154.64 108.86 156.39 C 112.14 155.36 114.81 153.08 117.99 151.87 C 121.25 150.61 122.95 154.59 124.30 156.81 C 125.88 160.66 121.51 162.86 119.70 165.60 C 116.82 168.83 118.93 173.26 120.37 176.64 C 123.11 180.05 128.91 178.74 131.48 182.42 C 132.36 185.31 131.87 189.74 128.84 191.20 C 125.08 191.62 120.45 190.43 117.51 193.45 C 115.95 195.68 114.05 198.20 114.16 201.03 C 115.49 204.86 118.10 208.11 119.50 211.94 C 117.06 213.54 114.83 215.64 112.00 216.55 C 108.35 215.53 106.33 211.73 102.83 210.36 C 99.59 208.90 95.84 210.30 93.09 212.15 C 90.79 215.38 91.69 220.17 88.95 223.09 C 85.89 223.88 82.71 222.98 79.71 222.32 C 77.99 218.06 80.20 212.75 76.95 209.08 C 74.56 207.59 71.92 205.77 69.02 205.81 C 65.84 207.03 63.17 209.28 59.96 210.46 C 56.79 209.18 55.12 205.79 53.34 203.06 C 55.00 200.11 58.48 198.67 59.73 195.46 C 61.31 191.79 59.94 187.40 57.26 184.63 C 54.50 182.46 50.81 182.26 47.53 181.38 C 47.11 178.10 46.54 174.24 48.38 171.32 C 51.76 169.48 56.04 171.07 59.65 169.83 C 62.10 167.53 63.71 164.40 64.78 161.25 C 63.34 157.69 61.10 154.52 59.47 151.05 C 61.50 148.90 63.70 146.83 66.32 145.43 C 68.93 144.83 70.25 147.64 71.79 149.17 C 75.12 153.52 81.61 152.15 85.66 149.66 C 88.15 146.41 87.25 141.45 90.35 138.56 M 85.33 169.57 C 80.95 171.17 77.86 175.47 77.55 180.09 C 76.95 186.21 81.95 192.00 88.04 192.53 C 94.46 193.56 100.83 188.40 101.29 181.94 C 102.41 173.65 93.21 166.04 85.33 169.57 Z" />
</g>
<g id="#5ac5f1ff">
<path fill="#5ac5f1" opacity="1.00" d=" M 215.73 144.65 C 218.19 142.85 221.27 144.35 223.92 144.82 C 224.29 145.33 225.03 146.35 225.40 146.86 C 225.47 150.40 225.68 153.96 226.62 157.39 C 229.27 159.04 231.79 161.51 235.06 161.62 C 238.75 161.04 241.43 157.81 245.14 157.27 C 248.07 157.43 249.15 160.89 250.43 163.04 C 251.06 167.86 244.84 169.63 244.30 174.07 C 243.90 177.34 245.50 180.34 246.74 183.25 C 250.33 184.76 254.37 185.25 257.57 187.62 C 258.05 190.65 257.42 193.62 256.23 196.40 C 251.91 198.21 245.98 195.52 242.83 199.79 C 241.36 202.04 239.39 204.79 240.44 207.60 C 241.90 211.04 244.54 213.98 245.04 217.81 C 242.69 219.26 240.59 221.40 237.82 221.99 C 233.61 220.85 231.34 215.99 226.82 215.47 C 223.89 214.92 221.24 216.40 218.80 217.77 C 217.33 221.32 216.83 225.17 215.35 228.72 C 211.88 228.51 206.64 230.02 204.84 226.03 C 204.48 222.95 205.00 219.80 204.28 216.77 C 202.60 213.83 199.16 212.25 196.03 211.35 C 192.32 211.90 189.58 215.15 185.93 215.82 C 182.61 215.18 181.38 211.22 179.26 208.94 C 180.71 205.63 184.59 204.22 185.72 200.73 C 187.34 197.06 185.57 192.81 183.03 190.04 C 180.34 188.07 176.85 187.88 173.69 187.23 C 172.27 183.82 173.43 180.22 173.75 176.72 C 177.61 175.90 181.60 176.12 185.48 175.48 C 187.12 174.46 187.81 172.44 188.86 170.89 C 189.56 169.31 191.22 167.58 190.18 165.79 C 188.71 162.73 186.89 159.86 185.36 156.83 C 187.18 154.43 189.50 152.38 192.29 151.19 C 195.01 150.53 196.24 153.55 197.95 155.02 C 201.47 159.30 207.91 157.60 211.85 154.94 C 213.58 151.69 213.40 147.62 215.73 144.65 M 212.22 174.90 C 204.21 176.72 200.70 187.75 206.05 193.93 C 209.55 197.86 216.04 199.62 220.76 196.89 C 224.55 195.12 226.89 191.04 227.26 186.96 C 227.84 179.27 219.77 172.24 212.22 174.90 Z" />
</g>
</svg>
