<?xml version="1.0" encoding="UTF-8" ?>
<!DOCTYPE svg PUBLIC "-//W3C//DTD SVG 1.1//EN" "http://www.w3.org/Graphics/SVG/1.1/DTD/svg11.dtd">
<svg width="400pt" height="400pt" viewBox="0 0 400 400" version="1.1" xmlns="http://www.w3.org/2000/svg">
<g id="#feffffff">
</g>
<g id="#209bd8ff">
<path fill="#209bd8" opacity="1.00" d=" M 137.20 63.54 C 146.15 60.55 155.68 60.90 164.97 61.27 C 185.59 63.27 204.42 75.96 215.24 93.46 C 224.32 93.73 233.33 95.80 241.62 99.50 C 243.05 100.06 244.47 100.81 246.04 100.89 C 247.63 100.35 249.04 99.40 250.49 98.55 C 264.79 89.66 282.28 86.06 298.95 88.41 C 318.46 90.91 336.69 101.74 348.44 117.49 C 367.53 141.98 369.06 178.23 352.51 204.45 C 343.18 219.50 328.44 231.19 311.53 236.54 C 303.96 239.06 295.96 239.96 288.02 240.12 C 227.33 240.12 166.65 240.11 105.97 240.13 C 97.59 240.34 89.17 239.47 81.02 237.52 C 64.78 232.25 50.52 220.64 42.88 205.27 C 36.63 193.31 34.84 179.30 36.90 166.03 C 39.64 148.81 49.92 132.93 64.54 123.44 C 72.32 118.30 81.23 115.03 90.40 113.51 C 95.69 90.11 114.10 70.21 137.20 63.54 M 114.91 80.82 C 104.05 90.17 96.65 103.30 94.01 117.37 C 80.91 118.89 68.14 124.39 58.70 133.71 C 44.91 146.58 38.04 166.42 40.97 185.06 C 42.82 198.75 49.86 211.63 60.22 220.75 C 65.96 226.02 72.92 229.79 80.11 232.71 C 93.01 236.80 106.67 235.56 119.98 235.72 C 177.01 235.72 234.04 235.72 291.07 235.72 C 313.75 235.27 335.55 222.68 347.80 203.69 C 355.18 192.56 359.29 179.34 359.66 166.00 C 360.29 147.92 353.74 129.71 341.80 116.14 C 328.72 101.09 309.03 91.84 289.02 92.08 C 273.58 91.75 258.48 97.46 246.13 106.53 C 235.92 100.64 224.19 97.87 212.47 97.49 C 201.59 77.82 179.58 64.58 156.99 65.11 C 141.66 64.78 126.31 70.57 114.91 80.82 Z" />
<path fill="#209bd8" opacity="1.00" d=" M 303.74 114.71 C 305.70 111.69 306.63 107.48 310.17 105.86 C 313.46 105.05 316.33 107.57 319.17 108.83 C 319.52 109.91 319.87 111.00 320.22 112.09 C 319.48 116.80 316.77 122.45 320.34 126.63 C 322.54 128.86 324.89 131.37 327.99 132.26 C 332.44 131.84 336.54 129.43 341.08 129.63 C 343.97 131.34 344.59 135.11 345.52 138.08 C 344.78 144.47 335.47 144.74 334.35 151.07 C 334.20 154.46 333.85 158.33 335.72 161.33 C 338.86 164.31 343.61 165.38 346.07 169.12 C 347.49 172.11 345.57 175.41 343.93 177.91 C 341.34 181.22 337.05 178.52 333.75 178.22 C 330.02 177.16 326.08 178.68 323.76 181.71 C 318.11 187.14 322.88 195.24 323.77 201.65 C 320.28 202.88 316.85 205.02 313.05 204.80 C 308.60 201.97 307.22 195.55 301.92 193.73 C 298.58 192.95 294.61 192.73 291.65 194.71 C 288.90 197.80 287.99 202.08 285.33 205.23 C 284.22 206.93 282.14 205.96 280.56 205.71 C 278.13 204.96 275.43 204.30 273.63 202.38 C 272.07 197.23 276.28 191.88 274.18 186.75 C 272.48 183.87 269.42 182.19 266.95 180.06 C 262.99 179.98 259.26 181.34 255.49 182.33 C 254.17 182.57 252.33 183.00 251.57 181.52 C 249.62 178.83 248.63 175.62 247.34 172.60 C 249.67 168.96 254.48 168.39 257.02 165.01 C 260.34 160.41 260.05 153.27 255.65 149.44 C 252.82 147.31 249.48 146.01 246.44 144.21 C 246.97 140.16 248.27 136.27 249.89 132.54 C 254.73 132.09 259.32 133.98 264.09 134.27 C 267.79 132.68 270.52 129.20 272.72 125.91 C 272.93 121.37 270.78 117.12 269.80 112.75 C 270.03 112.28 270.48 111.34 270.71 110.86 C 274.25 109.10 277.82 106.86 281.96 107.30 C 284.15 111.66 286.06 117.51 291.67 118.31 C 295.79 118.84 301.72 119.28 303.74 114.71 M 291.33 142.34 C 283.68 145.14 279.81 155.19 283.73 162.35 C 286.82 168.76 295.00 172.08 301.69 169.64 C 309.55 167.18 313.95 157.20 310.15 149.80 C 307.32 142.61 298.30 139.22 291.33 142.34 Z" />
<path fill="#209bd8" opacity="1.00" d=" M 112.29 286.88 C 119.84 286.35 127.89 284.98 135.13 287.86 C 141.89 290.58 144.19 299.54 140.73 305.65 C 139.36 308.49 136.49 310.04 133.95 311.65 C 136.15 313.62 138.40 315.76 139.31 318.66 C 141.07 324.13 142.01 329.83 143.82 335.29 C 141.69 335.31 139.56 335.32 137.43 335.35 C 135.01 329.74 134.91 323.35 132.05 317.94 C 129.36 313.04 123.17 314.25 118.55 314.31 C 118.65 321.31 118.63 328.30 118.55 335.30 C 116.48 335.30 114.41 335.31 112.34 335.32 C 112.21 319.17 112.27 303.03 112.29 286.88 M 118.59 291.49 C 118.62 297.45 118.63 303.41 118.60 309.37 C 123.33 309.20 128.73 309.88 132.72 306.76 C 137.14 303.50 136.95 295.67 132.13 292.85 C 128.11 290.28 123.08 291.30 118.59 291.49 Z" />
<path fill="#209bd8" opacity="1.00" d=" M 151.21 286.49 C 159.94 286.48 168.67 286.45 177.41 286.53 C 177.42 288.28 177.43 290.03 177.45 291.79 C 170.76 291.95 164.05 291.55 157.38 292.19 C 157.41 297.05 157.40 301.91 157.37 306.78 C 163.67 307.45 170.02 307.11 176.35 307.20 C 176.35 308.92 176.36 310.64 176.38 312.36 C 170.06 312.39 163.74 312.36 157.42 312.42 C 157.41 318.22 157.40 324.02 157.41 329.82 C 164.43 329.79 171.45 329.80 178.47 329.79 C 178.46 331.60 178.45 333.41 178.44 335.22 C 169.38 335.25 160.31 335.16 151.25 335.26 C 151.06 319.01 151.26 302.74 151.21 286.49 Z" />
<path fill="#209bd8" opacity="1.00" d=" M 228.82 286.52 C 231.40 286.50 233.99 286.50 236.58 286.49 C 242.13 302.73 247.89 318.91 253.04 335.28 C 250.73 335.30 248.42 335.30 246.10 335.29 C 244.80 330.00 242.81 324.92 241.14 319.74 C 235.50 319.72 229.85 319.76 224.20 319.67 C 222.30 324.83 220.67 330.08 218.99 335.32 C 216.75 335.30 214.52 335.30 212.28 335.31 C 217.70 319.01 223.40 302.82 228.82 286.52 M 232.78 292.31 C 230.53 299.83 227.97 307.25 225.42 314.67 C 230.21 314.84 235.00 314.78 239.79 314.75 C 237.38 307.29 234.28 300.03 232.78 292.31 Z" />
<path fill="#209bd8" opacity="1.00" d=" M 260.36 286.79 C 268.00 286.37 276.27 284.78 283.44 288.30 C 292.60 292.85 292.52 307.72 283.97 312.85 C 278.85 316.26 272.48 316.08 266.59 315.79 C 266.62 322.31 266.61 328.82 266.53 335.34 C 264.46 335.33 262.39 335.32 260.32 335.32 C 260.28 319.15 260.21 302.97 260.36 286.79 M 266.62 291.51 C 266.59 297.86 266.56 304.22 266.60 310.58 C 270.82 310.70 275.44 311.48 279.25 309.16 C 285.50 305.96 285.51 294.83 278.63 292.34 C 274.83 290.75 270.62 291.32 266.62 291.51 Z" />
<path fill="#209bd8" opacity="1.00" d=" M 298.56 286.99 C 306.20 286.22 314.59 284.83 321.76 288.30 C 331.31 293.01 330.78 308.83 321.42 313.44 C 316.48 316.26 310.63 316.03 305.14 316.20 C 305.07 322.60 305.40 329.01 304.81 335.40 C 302.75 335.34 300.69 335.31 298.64 335.28 C 298.55 319.18 298.68 303.08 298.56 286.99 M 305.26 291.46 C 305.12 297.87 305.08 304.28 305.27 310.68 C 309.30 310.71 313.68 311.40 317.34 309.29 C 323.45 306.43 324.13 296.18 318.08 292.92 C 314.22 290.58 309.54 291.39 305.26 291.46 Z" />
<path fill="#209bd8" opacity="1.00" d=" M 73.79 286.81 C 81.65 286.30 90.16 284.86 97.50 288.52 C 106.24 293.49 105.89 308.08 97.31 313.04 C 92.31 316.38 86.02 316.18 80.27 315.87 C 80.28 322.34 80.27 328.82 80.24 335.29 C 78.10 335.30 75.96 335.31 73.83 335.33 C 73.81 319.16 73.82 302.99 73.79 286.81 M 80.35 291.51 C 80.19 297.89 80.27 304.27 80.30 310.64 C 84.54 310.66 89.24 311.50 93.02 309.05 C 98.79 305.92 99.30 295.86 93.18 292.82 C 89.27 290.60 84.63 291.34 80.35 291.51 Z" />
<path fill="#209bd8" opacity="1.00" d=" M 186.60 286.54 C 195.33 286.41 204.07 286.48 212.81 286.51 C 212.81 288.25 212.81 290.00 212.82 291.75 C 206.14 291.98 199.43 291.52 192.76 292.21 C 192.84 297.40 192.83 302.58 192.82 307.77 C 199.00 307.84 205.17 307.82 211.35 307.74 C 211.37 309.57 211.38 311.40 211.41 313.23 C 205.19 313.26 198.97 313.13 192.76 313.36 C 192.87 320.67 192.79 327.99 192.78 335.30 C 190.72 335.29 188.67 335.29 186.63 335.30 C 186.57 319.05 186.66 302.79 186.60 286.54 Z" />
</g>
<g id="#78aec8ff">
<path fill="#78aec8" opacity="1.00" d=" M 159.12 85.20 C 162.39 81.82 163.34 76.75 166.96 73.64 C 170.23 73.39 173.58 74.82 176.10 76.85 C 179.03 80.44 176.04 84.96 176.09 88.98 C 175.46 93.32 179.45 96.14 182.43 98.50 C 187.59 102.55 194.01 95.79 199.57 98.63 C 202.59 101.15 203.28 105.55 202.53 109.24 C 198.02 112.05 191.28 114.68 191.51 121.03 C 191.66 124.02 191.07 128.12 194.13 129.85 C 197.87 132.26 201.86 134.28 205.56 136.78 C 204.10 140.12 203.13 143.82 200.70 146.63 C 195.40 147.95 189.81 144.20 184.68 146.80 C 181.80 148.35 179.25 150.93 178.21 154.07 C 177.76 158.87 181.31 163.12 180.94 167.89 C 178.07 170.63 173.72 173.73 169.58 172.40 C 166.10 169.24 164.74 164.09 160.58 161.60 C 156.68 160.50 152.60 161.58 148.80 162.59 C 146.71 166.39 144.55 170.15 142.43 173.92 C 138.43 173.62 134.70 172.11 131.06 170.52 C 130.74 166.89 132.17 163.50 132.64 159.97 C 132.85 154.35 128.11 149.35 122.78 148.21 C 118.45 147.50 114.60 150.96 110.39 150.51 C 107.61 147.87 105.20 143.97 105.20 140.05 C 107.70 135.86 113.19 134.71 116.17 130.91 C 117.06 127.00 116.41 122.96 116.27 119.01 C 112.16 116.56 107.99 114.20 103.81 111.88 C 104.74 108.11 105.34 103.90 108.01 100.91 C 112.52 99.25 117.25 104.12 121.81 101.85 C 125.53 100.03 128.84 96.95 130.33 93.03 C 130.49 88.06 126.52 83.24 128.46 78.27 C 131.19 76.04 135.20 74.22 138.71 75.48 C 142.46 78.40 143.38 84.27 148.17 86.07 C 151.77 86.74 155.66 86.45 159.12 85.20 M 150.35 109.36 C 144.20 110.85 139.87 116.89 139.58 123.06 C 139.20 130.20 144.80 137.35 152.02 138.11 C 160.64 139.47 169.51 131.85 168.84 123.00 C 168.68 113.99 158.95 106.98 150.35 109.36 Z" />
</g>
<g id="#16578dff">
<path fill="#16578d" opacity="1.00" d=" M 90.33 138.56 C 93.10 137.64 96.71 138.25 98.86 140.26 C 100.67 143.83 98.74 148.43 101.07 151.88 C 103.19 154.11 106.22 155.10 108.92 156.45 C 112.74 155.09 115.89 151.96 120.02 151.57 C 122.58 153.48 125.57 156.85 124.24 160.28 C 122.32 163.23 118.79 165.31 118.20 169.00 C 118.41 171.84 119.25 174.68 120.70 177.13 C 123.73 179.59 128.21 179.19 131.12 181.86 C 132.66 184.55 131.90 188.66 129.67 190.76 C 125.82 192.18 120.66 190.07 117.50 193.47 C 115.91 195.67 114.08 198.18 114.16 201.01 C 115.53 204.83 117.98 208.16 119.55 211.90 C 117.10 213.56 114.80 215.59 111.97 216.57 C 108.13 215.28 105.93 211.28 102.04 210.08 C 98.86 208.95 95.72 210.86 92.83 211.98 C 91.31 215.60 91.41 220.02 88.94 223.15 C 85.80 223.77 82.63 222.95 79.56 222.35 C 78.76 218.66 79.18 214.82 78.29 211.16 C 76.88 207.89 73.03 206.82 69.96 205.73 C 66.25 206.45 63.37 209.26 59.86 210.53 C 56.77 208.94 55.05 205.75 53.25 202.95 C 55.73 199.74 60.04 197.47 60.36 193.01 C 60.62 189.11 58.67 184.49 54.71 183.21 C 52.34 182.36 49.85 181.91 47.41 181.33 C 47.26 178.06 46.52 174.32 48.34 171.39 C 52.11 168.85 58.35 172.39 61.23 168.13 C 62.74 166.01 64.12 163.69 64.74 161.15 C 63.29 157.60 61.07 154.43 59.44 150.96 C 61.79 148.94 63.95 146.18 67.03 145.35 C 70.63 145.98 71.72 150.71 75.28 151.66 C 78.78 152.48 82.67 151.57 85.65 149.64 C 88.08 146.37 87.34 141.50 90.33 138.56 M 85.38 169.56 C 80.38 171.33 77.10 176.67 77.54 181.92 C 77.95 187.78 83.24 192.54 89.07 192.62 C 95.17 193.05 100.80 188.04 101.28 181.99 C 102.44 173.70 93.27 166.06 85.38 169.56 Z" />
</g>
<g id="#5ac5f1ff">
<path fill="#5ac5f1" opacity="1.00" d=" M 215.74 144.71 C 218.19 142.82 221.51 144.56 224.30 144.66 C 225.74 148.76 225.73 153.14 226.50 157.38 C 228.97 158.92 231.33 160.89 234.22 161.58 C 238.53 161.63 241.60 157.25 245.90 157.34 C 248.38 158.49 249.93 161.38 250.53 163.97 C 249.92 167.84 245.72 169.77 244.43 173.34 C 243.67 176.82 245.46 180.12 246.67 183.27 C 250.45 184.45 254.22 185.69 257.75 187.52 C 257.81 190.59 257.32 193.63 256.34 196.54 C 251.73 197.73 245.38 195.68 242.40 200.39 C 240.93 202.63 239.22 205.60 240.77 208.25 C 242.39 211.38 244.20 214.43 245.25 217.82 C 242.75 219.38 240.27 220.96 237.76 222.49 C 234.54 220.32 231.77 217.47 228.23 215.81 C 224.94 214.53 221.62 216.26 218.71 217.70 C 217.61 221.39 216.55 225.09 215.42 228.78 C 212.22 228.50 208.27 229.60 205.64 227.34 C 203.62 223.96 205.65 219.54 203.86 216.06 C 201.96 213.63 198.98 212.08 196.02 211.38 C 192.14 211.93 189.23 215.64 185.30 215.74 C 182.48 214.35 181.08 211.13 179.12 208.80 C 181.71 205.37 186.11 202.73 186.35 198.03 C 186.33 195.09 185.07 192.10 182.97 190.03 C 180.22 188.03 176.66 187.87 173.44 187.15 C 173.11 183.65 173.28 180.13 173.66 176.64 C 177.59 176.10 181.60 176.14 185.51 175.41 C 187.97 173.27 189.54 170.11 190.53 167.03 C 189.36 163.34 187.02 160.15 185.27 156.73 C 187.72 154.46 190.22 150.92 193.93 151.21 C 196.74 152.95 198.30 156.45 201.63 157.39 C 205.27 158.33 208.76 156.41 212.08 155.18 C 213.12 151.65 213.55 147.76 215.74 144.71 M 212.20 174.89 C 206.96 176.20 203.19 181.60 203.52 186.94 C 203.43 192.08 207.33 196.65 212.30 197.68 C 218.52 199.91 225.57 195.28 226.91 189.02 C 229.29 180.76 220.49 171.94 212.20 174.89 Z" />
</g>
</svg>
