<?xml version="1.0" encoding="UTF-8" ?>
<!DOCTYPE svg PUBLIC "-//W3C//DTD SVG 1.1//EN" "http://www.w3.org/Graphics/SVG/1.1/DTD/svg11.dtd">
<svg width="1325pt" height="745pt" viewBox="0 0 1325 745" version="1.1" xmlns="http://www.w3.org/2000/svg">
<g id="#feffffff">
</g>
<g id="#209bd8ff">
<path fill="#209bd8" opacity="1.00" d=" M 33.94 229.08 C 52.28 227.61 70.60 225.81 89.00 225.38 C 105.88 225.24 123.00 226.62 139.10 232.00 C 146.14 234.41 153.20 237.21 159.08 241.89 C 172.93 252.37 181.29 268.94 183.69 285.95 C 186.47 304.87 182.57 324.96 171.94 340.97 C 166.31 349.54 158.45 356.47 149.57 361.54 C 130.70 373.35 107.73 375.55 85.97 375.13 C 79.46 374.96 72.95 374.83 66.45 374.46 C 66.45 406.83 66.44 439.19 66.27 471.55 C 55.55 471.65 44.82 471.65 34.09 471.74 C 33.99 390.85 34.09 309.96 33.94 229.08 M 66.62 252.46 C 65.82 284.39 66.17 316.34 66.42 348.28 C 81.41 348.44 96.57 350.29 111.44 347.59 C 125.22 344.93 138.71 337.20 145.82 324.78 C 154.16 310.38 155.38 291.82 148.19 276.71 C 143.95 267.38 135.65 260.55 126.32 256.68 C 107.50 248.38 86.48 251.64 66.62 252.46 Z" />
<path fill="#209bd8" opacity="1.00" d=" M 226.35 229.32 C 252.89 227.54 279.50 223.56 306.12 226.20 C 318.70 227.41 331.24 230.10 342.86 235.16 C 358.62 242.21 369.86 257.23 374.23 273.71 C 379.69 293.04 375.99 314.82 363.89 330.93 C 356.20 340.65 345.13 346.71 334.87 353.28 C 343.32 360.78 351.70 368.72 357.36 378.62 C 360.91 384.66 362.59 391.51 364.60 398.16 C 371.59 422.49 376.26 447.45 384.14 471.54 C 373.46 471.66 362.78 471.70 352.10 471.83 C 340.08 444.05 339.52 412.56 325.58 385.48 C 321.19 376.53 312.54 370.19 302.95 367.86 C 288.17 364.14 272.83 366.25 257.81 366.68 C 258.20 401.66 258.12 436.64 257.79 471.62 C 247.40 471.62 237.01 471.69 226.61 471.66 C 225.91 390.89 226.27 310.10 226.35 229.32 M 257.94 252.32 C 258.05 282.18 258.04 312.04 257.98 341.91 C 275.35 341.44 293.11 342.88 310.04 338.13 C 321.93 334.70 333.47 327.53 339.35 316.31 C 346.63 302.58 346.33 285.04 338.30 271.69 C 332.64 262.10 322.43 256.09 311.96 253.09 C 294.28 248.24 275.90 251.64 257.94 252.32 Z" />
<path fill="#209bd8" opacity="1.00" d=" M 966.74 228.96 C 988.16 227.60 1009.54 224.88 1031.04 225.29 C 1049.09 225.77 1067.51 228.75 1083.65 237.22 C 1095.42 243.40 1104.69 253.84 1110.10 265.92 C 1119.05 285.78 1118.91 309.35 1110.37 329.32 C 1105.29 341.25 1096.78 351.80 1085.76 358.72 C 1075.09 365.96 1062.72 370.40 1050.05 372.54 C 1032.85 375.45 1015.31 375.00 997.97 373.97 C 998.06 406.56 998.05 439.16 997.74 471.76 C 987.33 471.72 976.92 471.73 966.51 471.70 C 966.30 390.78 965.87 309.87 966.74 228.96 M 998.07 252.40 C 997.96 284.24 997.63 316.08 997.95 347.92 C 1010.64 348.55 1023.36 349.60 1036.07 348.66 C 1048.36 347.62 1060.57 343.12 1069.85 334.85 C 1083.55 321.84 1087.44 300.65 1082.10 282.91 C 1078.68 271.17 1070.01 260.79 1058.33 256.62 C 1039.24 248.61 1018.14 251.46 998.07 252.40 Z" />
<path fill="#209bd8" opacity="1.00" d=" M 1157.74 229.89 C 1179.77 227.59 1201.85 224.59 1224.06 225.26 C 1239.83 225.84 1255.73 228.43 1270.26 234.79 C 1282.26 239.78 1292.43 248.87 1298.85 260.15 C 1308.60 277.20 1310.71 298.05 1306.20 317.02 C 1302.58 332.39 1294.18 346.92 1281.44 356.48 C 1267.60 366.48 1250.94 372.04 1234.06 373.90 C 1219.70 375.65 1205.22 375.73 1190.78 375.99 C 1190.37 407.98 1192.12 440.07 1189.07 471.98 C 1178.75 471.79 1168.44 471.70 1158.13 471.49 C 1157.75 390.95 1158.39 310.42 1157.74 229.89 M 1191.19 252.21 C 1190.52 284.30 1190.29 316.40 1191.23 348.48 C 1203.17 348.73 1215.13 349.49 1227.07 348.72 C 1238.54 347.87 1249.77 343.90 1259.04 337.06 C 1271.55 327.23 1277.36 310.62 1276.42 295.04 C 1275.71 282.95 1270.59 270.72 1260.91 263.11 C 1252.87 256.98 1243.12 253.23 1233.10 252.07 C 1219.18 250.12 1205.15 252.04 1191.19 252.21 Z" />
<path fill="#209bd8" opacity="1.00" d=" M 421.02 227.30 C 464.69 227.32 508.35 227.09 552.01 227.53 C 552.12 236.34 552.17 245.14 552.27 253.95 C 518.83 254.71 485.29 252.87 451.92 255.97 C 452.01 280.28 451.96 304.58 451.89 328.88 C 483.43 332.09 515.16 330.58 546.80 331.00 C 546.82 339.62 546.86 348.24 546.92 356.86 C 515.32 356.96 483.73 356.81 452.14 357.10 C 452.02 386.08 451.99 415.05 452.09 444.03 C 487.20 443.95 522.31 443.97 557.42 443.95 C 557.36 453.00 557.31 462.04 557.25 471.09 C 511.89 471.30 466.53 470.71 421.18 471.35 C 420.24 390.00 421.22 308.65 421.02 227.30 Z" />
<path fill="#209bd8" opacity="1.00" d=" M 598.00 227.59 C 641.67 226.94 685.35 227.30 729.02 227.39 C 729.05 236.21 729.07 245.02 729.13 253.84 C 695.71 254.72 662.20 252.77 628.88 256.06 C 629.14 281.97 629.19 307.88 629.13 333.79 C 660.03 334.22 690.93 334.09 721.82 333.65 C 721.87 342.82 721.94 351.99 722.02 361.16 C 690.97 361.26 659.90 360.75 628.85 361.87 C 629.26 398.46 628.96 435.04 628.90 471.63 C 618.63 471.54 608.36 471.54 598.10 471.61 C 597.86 390.27 598.19 308.93 598.00 227.59 Z" />
<path fill="#209bd8" opacity="1.00" d=" M 809.09 227.48 C 822.02 227.37 834.95 227.35 847.89 227.32 C 875.72 308.59 904.57 389.53 930.26 471.51 C 918.66 471.60 907.07 471.60 895.48 471.53 C 888.92 445.09 878.98 419.69 870.70 393.79 C 842.49 393.63 814.27 393.95 786.06 393.45 C 776.46 419.22 768.42 445.53 759.98 471.70 C 748.75 471.61 737.52 471.67 726.29 471.61 C 753.40 390.07 781.86 308.98 809.09 227.48 M 828.87 256.43 C 817.48 294.06 804.71 331.26 791.97 368.45 C 815.99 369.27 840.04 368.97 864.06 368.80 C 851.98 331.47 836.62 295.05 828.87 256.43 Z" />
</g>
</svg>
